<svg display="none" xmlns="http://www.w3.org/2000/svg">
  <symbol id="location" viewBox="0 0 100 100">
    <path d="M68.913 48.908l-.048.126c.015-.038.027-.077.042-.115l.006-.011z"></path>
    <path
      d="M50.002 0C33.524 0 20 13.48 20 29.922c0 6.372 2.04 12.31 5.48 17.174l-.123-.192l19.206 33.198l.097.127c.774 1.01 1.54 1.824 2.467 2.437c.927.613 2.114 1 3.28.883c2.33-.234 3.684-1.844 4.935-3.54l.078-.105L76.594 43.87l.017-.03c.507-.915.874-1.838 1.188-2.732A29.578 29.578 0 0 0 80 29.922C80 13.48 66.48 0 50.002 0zm0 5C63.756 5 75 16.218 75 29.922a24.55 24.55 0 0 1-1.84 9.332l-.025.062l-.022.065c-.263.757-.549 1.444-.879 2.04L51.275 77.087c-.927 1.221-1.575 1.51-1.367 1.488c.107-.01.206.074-.023-.078c-.219-.145-.666-.57-1.196-1.246L29.63 44.3l-.067-.093C26.69 40.147 25 35.23 25 29.922C25 16.219 36.248 5 50.002 5zm0 7.85c-9.462 0-17.115 7.626-17.115 17.072c0 9.446 7.654 17.072 17.115 17.072c9.461 0 17.111-7.627 17.111-17.072c0-9.446-7.65-17.072-17.111-17.072zm0 5c6.817 0 12.111 5.285 12.111 12.072c0 6.787-5.293 12.072-12.111 12.072c-6.818 0-12.115-5.286-12.115-12.072c0-6.787 5.298-12.072 12.115-12.072z"
    ></path>
    <path
      d="M34.006 69.057C19.88 71.053 10 75.828 10 82.857C10 92.325 26.508 100 50 100s40-7.675 40-17.143c0-7.029-9.879-11.804-24.004-13.8l-1.957 3.332C74.685 73.866 82 76.97 82 80.572c0 5.05-14.327 9.143-32 9.143c-17.673 0-32-4.093-32-9.143c-.001-3.59 7.266-6.691 17.945-8.174c-.645-1.114-1.294-2.226-1.94-3.341z"
    ></path>
  </symbol>

  <symbol id="loupe" viewBox="0 0 512 512">
    <g>
      <g>
        <path
          d="M281.1,0c-127.318,0-230.9,103.582-230.9,230.9c0,45.12,13.019,87.25,35.483,122.853l-70.654,70.654
			c-20.039,20.039-20.039,52.527,0,72.564c20.039,20.039,52.527,20.039,72.564,0l70.654-70.654
			c35.605,22.464,77.735,35.483,122.853,35.483c127.318,0,230.9-103.582,230.9-230.9S408.42,0,281.1,0z M281.1,410.489
			c-99.025,0-179.589-80.564-179.589-179.589S182.074,51.311,281.1,51.311S460.689,131.875,460.689,230.9
			S380.127,410.489,281.1,410.489z"
        />
      </g>
    </g>
  </symbol>

  <symbol id="sunrise" viewBox="0 0 24 24" fill="none">
    <g stroke-width="0"></g>
    <g stroke-linecap="round" stroke-linejoin="round"></g>
    <g>
      <path
        d="M4 18H2M6.31412 12.3141L4.8999 10.8999M17.6858 12.3141L19.1 10.8999M22 18H20M7 18C7 15.2386 9.23858 13 12 13C14.7614 13 17 15.2386 17 18M22 22H2M16 6L12 2M12 2L8 6M12 2V9"
        stroke-width="2"
        stroke-linecap="round"
        stroke-linejoin="round"
      ></path>
    </g>
  </symbol>

  <symbol id="sunset" viewBox="0 0 24 24" fill="none">
    <g stroke-width="0"></g>
    <g stroke-linecap="round" stroke-linejoin="round"></g>
    <g>
      <path
        d="M4 18H2M6.31412 12.3141L4.8999 10.8999M17.6858 12.3141L19.1 10.8999M22 18H20M7 18C7 15.2386 9.23858 13 12 13C14.7614 13 17 15.2386 17 18M22 22H2M16 5L12 9M12 9L8 5M12 9V2"
        stroke-width="2"
        stroke-linecap="round"
        stroke-linejoin="round"
      ></path>
    </g>
  </symbol>

  <symbol id="humidity" viewBox="0 0 24 24" fill="none">
    <g stroke-width="0"></g>
    <g stroke-linecap="round" stroke-linejoin="round"></g>
    <g>
      <path
        d="M15.0066 3.25608C16.8483 2.85737 19.1331 2.8773 22.2423 3.65268C22.7781 3.78629 23.1038 4.32791 22.9699 4.86241C22.836 5.39691 22.2931 5.7219 21.7573 5.58829C18.8666 4.86742 16.9015 4.88747 15.4308 5.20587C13.9555 5.52524 12.895 6.15867 11.7715 6.84363L11.6874 6.89494C10.6044 7.55565 9.40515 8.28729 7.82073 8.55069C6.17734 8.82388 4.23602 8.58235 1.62883 7.54187C1.11607 7.33724 0.866674 6.75667 1.0718 6.24513C1.27692 5.73359 1.85889 5.48479 2.37165 5.68943C4.76435 6.6443 6.32295 6.77699 7.492 6.58265C8.67888 6.38535 9.58373 5.83916 10.7286 5.14119C11.855 4.45445 13.1694 3.6538 15.0066 3.25608Z"
      ></path>
      <path
        d="M22.2423 7.64302C19.1331 6.86765 16.8483 6.84772 15.0066 7.24642C13.1694 7.64415 11.855 8.44479 10.7286 9.13153C9.58373 9.8295 8.67888 10.3757 7.492 10.573C6.32295 10.7673 4.76435 10.6346 2.37165 9.67977C1.85889 9.47514 1.27692 9.72393 1.0718 10.2355C0.866674 10.747 1.11607 11.3276 1.62883 11.5322C4.23602 12.5727 6.17734 12.8142 7.82073 12.541C9.40515 12.2776 10.6044 11.546 11.6874 10.8853L11.7715 10.834C12.895 10.149 13.9555 9.51558 15.4308 9.19621C16.9015 8.87781 18.8666 8.85777 21.7573 9.57863C22.2931 9.71224 22.836 9.38726 22.9699 8.85275C23.1038 8.31825 22.7781 7.77663 22.2423 7.64302Z"
      ></path>
      <path
        fill-rule="evenodd"
        clip-rule="evenodd"
        d="M18.9998 10.0266C18.6526 10.0266 18.3633 10.2059 18.1614 10.4772C18.0905 10.573 17.9266 10.7972 17.7089 11.111C17.4193 11.5283 17.0317 12.1082 16.6424 12.7555C16.255 13.3996 15.8553 14.128 15.5495 14.8397C15.2567 15.5213 14.9989 16.2614 14.9999 17.0117C15.0006 17.2223 15.0258 17.4339 15.0604 17.6412C15.1182 17.9872 15.2356 18.4636 15.4804 18.9521C15.7272 19.4446 16.1131 19.9674 16.7107 20.3648C17.3146 20.7664 18.0748 21 18.9998 21C19.9248 21 20.685 20.7664 21.2888 20.3648C21.8864 19.9674 22.2724 19.4446 22.5192 18.9522C22.764 18.4636 22.8815 17.9872 22.9393 17.6413C22.974 17.4337 22.9995 17.2215 22.9998 17.0107C23.0001 16.2604 22.743 15.5214 22.4501 14.8397C22.1444 14.128 21.7447 13.3996 21.3573 12.7555C20.968 12.1082 20.5803 11.5283 20.2907 11.111C20.073 10.7972 19.909 10.573 19.8382 10.4772C19.6363 10.2059 19.3469 10.0266 18.9998 10.0266ZM20.6119 15.6257C20.3552 15.0281 20.0049 14.3848 19.6423 13.782C19.4218 13.4154 19.2007 13.0702 18.9998 12.7674C18.7989 13.0702 18.5778 13.4154 18.3573 13.782C17.9948 14.3848 17.6445 15.0281 17.3878 15.6257L17.3732 15.6595C17.1965 16.0704 16.9877 16.5562 17.0001 17.0101C17.0121 17.3691 17.1088 17.7397 17.2693 18.0599C17.3974 18.3157 17.574 18.5411 17.8201 18.7048C18.06 18.8643 18.4248 19.0048 18.9998 19.0048C19.5748 19.0048 19.9396 18.8643 20.1795 18.7048C20.4256 18.5411 20.6022 18.3156 20.7304 18.0599C20.8909 17.7397 20.9876 17.3691 20.9996 17.01C21.0121 16.5563 20.8032 16.0705 20.6265 15.6597L20.6119 15.6257Z"
      ></path>
      <path
        d="M14.1296 11.5308C14.8899 11.2847 15.4728 12.076 15.1153 12.7892C14.952 13.1151 14.7683 13.3924 14.4031 13.5214C13.426 13.8666 12.6166 14.3527 11.7715 14.8679L11.6874 14.9192C10.6044 15.5799 9.40516 16.3115 7.82074 16.5749C6.17735 16.8481 4.23604 16.6066 1.62884 15.5661C1.11608 15.3615 0.866688 14.7809 1.07181 14.2694C1.27694 13.7578 1.8589 13.509 2.37167 13.7137C4.76436 14.6685 6.32297 14.8012 7.49201 14.6069C8.67889 14.4096 9.58374 13.8634 10.7286 13.1654C11.8166 12.5021 12.9363 11.9171 14.1296 11.5308Z"
      ></path>
    </g>
  </symbol>

  <symbol id="wind" viewBox="0 0 24 24" fill="none">
    <g stroke-width="0"></g>
    <g stroke-linecap="round" stroke-linejoin="round"></g>
    <g>
      <path
        d="M3 8H5M7 5.85714V5.5C7 4.11929 8.11929 3 9.5 3C10.8807 3 12 4.11929 12 5.5C12 6.88071 10.8807 8 9.5 8H8"
        stroke-width="1.5"
        stroke-linecap="round"
      ></path>
      <path
        d="M4 14H5M15 17V17.5C15 19.433 16.567 21 18.5 21C20.433 21 22 19.433 22 17.5C22 15.567 20.433 14 18.5 14H9"
        stroke-width="1.5"
        stroke-linecap="round"
      ></path>
      <path
        d="M2 11H8M15 8V7.5C15 5.567 16.567 4 18.5 4C20.433 4 22 5.567 22 7.5C22 9.433 20.433 11 18.5 11H12.25"
        stroke-width="1.5"
        stroke-linecap="round"
      ></path>
    </g>
  </symbol>

  <symbol id="pressure" viewBox="0 0 512 512">
    <g id="SVGRepo_bgCarrier" stroke-width="0"></g>
    <g id="SVGRepo_tracerCarrier" stroke-linecap="round" stroke-linejoin="round"></g>
    <g id="SVGRepo_iconCarrier">
      <g>
        <g>
          <path
            d="M256,0C114.51,0,0,114.497,0,256c0,141.491,114.497,256,256,256c141.49,0,256-114.497,256-256 C512,114.509,397.503,0,256,0z M256,478.609c-122.746,0-222.609-99.862-222.609-222.609S133.254,33.391,256,33.391 S478.609,133.254,478.609,256S378.746,478.609,256,478.609z"
          ></path>
        </g>
      </g>
      <g>
        <g>
          <path
            d="M256,66.783C151.29,66.783,66.783,151.738,66.783,256c0,48.619,18.872,97.248,55.421,133.797 c6.52,6.52,17.091,6.52,23.611,0l23.611-23.611c6.52-6.519,6.52-17.09,0-23.611c-6.519-6.52-17.09-6.52-23.611,0l-11.177,11.177 c-19.241-23.851-30.408-52.1-33.501-81.056h15.734c9.22,0,16.696-7.475,16.696-16.696c0-9.22-7.475-16.696-16.696-16.696h-15.725 c3.094-28.955,14.261-57.198,33.5-81.05l11.17,11.169c6.52,6.52,17.091,6.52,23.611,0c6.519-6.519,6.519-17.091,0-23.611 l-11.175-11.175c23.276-18.804,51.227-30.356,81.054-33.5v15.732c0,9.22,7.475,16.696,16.696,16.696 c9.22,0,16.696-7.475,16.696-16.696v-15.731c29.827,3.144,57.777,14.698,81.054,33.5l-72.032,72.032 c-7.699-4.03-16.444-6.323-25.719-6.323c-30.687,0-55.652,24.966-55.652,55.652c0,30.687,24.966,55.652,55.652,55.652 c30.687,0,55.652-24.966,55.652-55.652c0-9.275-2.293-18.02-6.323-25.718l72.026-72.026c19.239,23.85,30.406,52.094,33.5,81.05 H395.13c-9.22,0-16.696,7.475-16.696,16.696c0,9.22,7.475,16.696,16.696,16.696h15.734c-3.093,28.956-14.26,57.206-33.501,81.056 l-11.177-11.177c-6.519-6.519-17.091-6.519-23.611,0c-6.52,6.52-6.52,17.091,0,23.611l23.611,23.611 c6.52,6.52,17.091,6.52,23.611,0c36.482-36.483,55.421-85.084,55.421-133.798C445.217,151.681,360.676,66.783,256,66.783z M256,278.261c-12.275,0-22.261-9.986-22.261-22.261c0-12.275,9.986-22.261,22.261-22.261c12.275,0,22.261,9.986,22.261,22.261 C278.261,268.275,268.275,278.261,256,278.261z"
          ></path>
        </g>
      </g>
      <g>
        <g>
          <path
            d="M272.696,345.043h-33.391c-27.618,0-50.087,22.469-50.087,50.087s22.469,50.087,50.087,50.087h33.391 c27.618,0,50.087-22.469,50.087-50.087S300.314,345.043,272.696,345.043z M272.696,411.826h-33.391 c-9.206,0-16.696-7.49-16.696-16.696s7.49-16.696,16.696-16.696h33.391c9.206,0,16.696,7.49,16.696,16.696 S281.902,411.826,272.696,411.826z"
          ></path>
        </g>
      </g>
    </g>
  </symbol>

  <symbol id="ultraviolet" viewBox="0 0 512 512">
    <g stroke-width="0"></g>
    <g stroke-linecap="round" stroke-linejoin="round"></g>
    <g>
      <style type="text/css">
        .st0 {
          fill: inherit;
        }
      </style>
      <g>
        <path
          class="st0"
          d="M345.295,323.018h-28.521c-1.35,0-2.244,0.895-2.244,2.244v95.214c0,18.196-10.114,28.522-25.382,28.522 c-15.497,0-25.595-10.326-25.595-28.522v-95.214c0-1.35-0.91-2.244-2.244-2.244h-28.521c-1.35,0-2.244,0.895-2.244,2.244v94.312 c0,37.961,24.245,58.62,58.604,58.62c34.131,0,58.391-20.659,58.391-58.62v-94.312 C347.539,323.913,346.645,323.018,345.295,323.018z"
        ></path>
        <path
          class="st0"
          d="M504.259,323.018h-28.976c-1.561,0-2.472,0.675-2.911,2.244l-29.644,100.157h-0.667l-30.554-100.157 c-0.438-1.569-1.35-2.244-2.91-2.244h-29.204c-1.561,0-2.455,0.895-2.017,2.472l48.506,147.988c0.456,1.35,1.35,2.244,2.926,2.244 h26.05c1.35,0,2.244-0.894,2.682-2.244l48.506-147.988C506.504,323.913,505.61,323.018,504.259,323.018z"
        ></path>
        <path
          class="st0"
          d="M136.915,0c14.505,17.952,23.22,40.798,23.22,65.685c-0.016,57.774-46.83,104.589-104.605,104.596 c-20.407,0-39.432-5.87-55.53-15.976V512L511.999,0H136.915z M42.408,273.196v-50.994h26.245l0.016,50.994H42.408z M192.982,221.706l-36.05-36.058l18.57-18.569l36.049,36.058L192.982,221.706z M212.056,78.832V52.563l50.993-0.008v26.261 L212.056,78.832z"
        ></path>
      </g>
    </g>
  </symbol>

  <symbol id="direction" viewBox="0 0 100 100">
    <g stroke-width="0"></g>
    <g stroke-linecap="round" stroke-linejoin="round"></g>
    <g>
      <path
        d="M47.655 1.634l-35 95c-.828 2.24 1.659 4.255 3.68 2.98l33.667-21.228l33.666 21.228c2.02 1.271 4.503-.74 3.678-2.98l-35-95C51.907.514 51.163.006 50 .008c-1.163.001-1.99.65-2.345 1.626zm-.155 14.88v57.54L19.89 91.461z"
        fill-rule="evenodd"
      ></path>
    </g>
  </symbol>
</svg>
